<?xml version="1.0" encoding="UTF-8"?>
<svg id="Layer_2" data-name="Layer 2" xmlns="http://www.w3.org/2000/svg" xmlns:xlink="http://www.w3.org/1999/xlink" viewBox="0 0 131.47 136.12">
  <defs>
    <style>
      .cls-1 {
        clip-path: url(#clippath);
      }

      .cls-2, .cls-3 {
        fill: none;
      }

      .cls-2, .cls-4, .cls-5, .cls-6, .cls-7, .cls-8, .cls-9, .cls-10, .cls-11, .cls-12, .cls-13, .cls-14, .cls-15, .cls-16, .cls-17, .cls-18, .cls-19, .cls-20, .cls-21, .cls-22, .cls-23, .cls-24, .cls-25, .cls-26, .cls-27, .cls-28, .cls-29, .cls-30, .cls-31, .cls-32 {
        stroke-width: 0px;
      }

      .cls-3 {
        stroke: #fff;
        stroke-linecap: round;
        stroke-linejoin: round;
        stroke-width: 2px;
      }

      .cls-4 {
        fill: #50456d;
      }

      .cls-5 {
        fill: #3a4b66;
      }

      .cls-6 {
        fill: #57cb62;
      }

      .cls-7 {
        fill: #2f6c70;
      }

      .cls-8 {
        fill: #3761a5;
      }

      .cls-9 {
        fill: #43b572;
      }

      .cls-10 {
        fill: #434a59;
      }

      .cls-11 {
        fill: #d38048;
      }

      .cls-12 {
        fill: #caefed;
      }

      .cls-13 {
        fill: #c66c67;
      }

      .cls-14 {
        fill: #ce4949;
      }

      .cls-15 {
        fill: #e2934c;
      }

      .cls-16 {
        fill: #ae4c0a;
      }

      .cls-17 {
        fill: #d47328;
      }

      .cls-18 {
        fill: #c15c40;
      }

      .cls-19 {
        fill: #af7b58;
      }

      .cls-20 {
        fill: #ce926a;
      }

      .cls-21 {
        fill: #c36315;
      }

      .cls-22 {
        fill: #ff5f4a;
      }

      .cls-23 {
        fill: #ff867a;
      }

      .cls-24 {
        fill: #ffae43;
      }

      .cls-25 {
        fill: #fff;
      }

      .cls-26 {
        fill: #ffe164;
      }

      .cls-27 {
        fill: #fffaa6;
      }

      .cls-28 {
        fill: #ffe9d4;
      }

      .cls-29 {
        fill: #ef7950;
      }

      .cls-30 {
        fill: #e59351;
      }

      .cls-31 {
        fill: #ffbc80;
      }

      .cls-32 {
        fill: #f27872;
      }
    </style>
    <clipPath id="clippath">
      <rect class="cls-2" width="126" height="126" rx="13.31" ry="13.31"/>
    </clipPath>
  </defs>
  <g id="Layer_1-2" data-name="Layer 1">
    <rect class="cls-12" width="126" height="126" rx="13.31" ry="13.31"/>
    <g class="cls-1">
      <g>
        <path class="cls-17" d="m47.76,62.84c-.97-10.75-3.85-9.48-6.22-7.91-14.64,9.69-44.58,60.44-24.37,67.68,15.14,5.43,18.42-17.82,18.42-17.82,0,0,12.8-34.89,12.17-41.95Z"/>
        <path class="cls-24" d="m32.01,118.5c1.4-24.52,4.44-60.22,10.35-64.36,5.67-3.97,23-6.57,29.37-5.68,7.74,1.07,21.28,7.38,23.86,16.63,2.02,7.22-2.63,18.72-2.38,39.91.06,4.99.14,10.62.21,16.2.12,8.97-62.17,10.53-61.41-2.69Z"/>
        <g>
          <path class="cls-7" d="m12.76,74.85s.14-3.36,1.23-5,1.23-.45,1.36-1.91-.64-4.36-.23-6.67c.41-2.32,1.45-3.54,3.18-3.77,1.73-.23,3.77.54,3.95,1.36.18.82.14,1.14-.59,1.36-.73.23-2-.41-2.45.18s.86,5.9,1.27,6.4c.41.5,2.86.18,4,1.23,1.14,1.04,2,2.21,2,2.45s-7.35,4.05-9.31,4.32-4.4.05-4.4.05Z"/>
          <path class="cls-29" d="m13.71,73.06s-4.48-2.35-7.8,1.11c-3.33,3.46-5.45,22.6,1.93,27.62,9.89,6.72,14.68-.33,14.68-.33,0,0,6.72,1.56,10.66-.21,4.87-2.18,4.33-3.87,4.33-3.87,0,0,8.41-.39,10.57-6.88,2.15-6.5-7.17-19.75-14.15-23.26-6.98-3.51-9.53,2.94-9.53,2.94,0,0-7.37-2.57-10.7,2.89Z"/>
          <path class="cls-18" d="m20.43,99.99c-.11,0-.22-.04-.31-.12-3.45-3.04-5.66-8.49-6.55-16.21-.66-5.7-.33-10.59-.32-10.64.02-.26.24-.45.49-.43.25.02.45.24.43.49-.01.19-1.27,19.18,6.57,26.09.19.17.21.46.04.65-.09.1-.22.16-.35.16Z"/>
          <path class="cls-18" d="m37.18,95.63c-.23,0-.44-.18-.46-.42,0-.05-.57-5.49-3.51-13.32-2.9-7.72-8.98-11.29-9.04-11.32-.22-.13-.3-.41-.17-.63.13-.22.41-.3.63-.17.26.15,6.42,3.75,9.44,11.8,2.98,7.95,3.56,13.5,3.57,13.55.03.25-.16.48-.41.51-.02,0-.03,0-.05,0Z"/>
          <path class="cls-25" d="m6.13,85.96c-.24,0-.45-.16-.51-.4-1.55-6.25,2-10.44,2.16-10.61.19-.22.53-.24.75-.05.22.19.24.52.05.75h0s-3.34,3.97-1.93,9.67c.07.28-.1.57-.39.64-.04.01-.09.02-.13.02Z"/>
          <path class="cls-25" d="m18.52,84.59c-.22,0-.43-.14-.5-.37-1.98-6.08-.7-10.82-.64-11.01.08-.28.37-.45.65-.37.28.08.45.37.37.65-.02.07-1.24,4.65.63,10.4.09.28-.06.58-.34.67-.05.02-.11.03-.16.03Z"/>
        </g>
        <path class="cls-4" d="m106.06,216.75s-12.6-92.65-12.75-104.26c-2.81-.03-9-.57-13.18-4.5-5.05-4.75,1.42-48.02,2.63-55.86-1.39-.7-2.8-1.32-4.18-1.84-.66,2.69-2.58,10.51-3.58,14.19-1.21,4.49-2.51,13.92-2.51,13.92l-23.85-1.9s1.54-19.48,3.67-26.1c-1.41.34-2.77.7-4.03,1.1-1.08,4.48-4.37,18.49-6.13,29.92-1.47,9.57-2.69,22.73-6.4,24.81-1.19.67-2.22,1.2-3.07,1.61-1.27,18.14-1.72,33.85-1.72,33.85,0,0,.02.01.07.03-.19,17.84-.81,51.31,2.21,82.57,10.68.84,42.83,4.88,73.06-5.83l-.25-1.71Z"/>
        <path class="cls-25" d="m57.53,95.07c-9.62-1.11-9.44-13.19-9.43-13.31,0-.13.06-.25.15-.34.1-.09.22-.13.35-.12l21.65,1.38c.13,0,.25.07.33.17.08.1.12.23.11.36-.03.26-.75,6.37-5.02,9.78-1.82,1.45-4.01,2.18-6.53,2.18-.52,0-1.06-.03-1.62-.1Zm-8.48-12.79c.06,2.22.79,10.95,8.59,11.85,2.94.34,5.44-.29,7.44-1.88,3.29-2.62,4.33-7.16,4.6-8.65l-20.63-1.31Z"/>
        <g>
          <g>
            <path class="cls-20" d="m74.13,28.6c.6-.95,1.11-2.16,1.18-3.29.14-2.27-3.34-7.37-5.4-8.32-1.18-.54-3.24.53-4.79,1.55,2.05,1.54,7.3,5.8,9.01,10.05Z"/>
            <path class="cls-10" d="m65.12,18.55c-1.16.76-2.03,1.49-2.03,1.49,1.24,3.21,8.58,10.56,9.36,10.33.39-.11,1.08-.82,1.68-1.78-1.71-4.25-6.96-8.51-9.01-10.05Z"/>
          </g>
          <path class="cls-19" d="m58.21,16.54c3.34.4,7.48,3.45,10.42,7.41,4.49,6.06,7.46,10.44,6.47,13.16-.99,2.72-7.14-2.51-11.93-6.5-4.43-3.69-10.94-14.79-4.96-14.07Z"/>
        </g>
        <path class="cls-28" d="m61.38,25.59s-1.11-.27-1.59-2c-.48-1.73.97-2.7,2.22-2.72,1.25-.02,2.54,1.29,3.34,2.36s1.72,2.99,2.37,3.82c.64.83,1.67,2.5,2.02,3.78.35,1.28-1.32,4.21-1.55,5.64s-7.61-7.24-6.81-10.87Z"/>
        <g>
          <path class="cls-23" d="m69.9,46.78c.14,1.52-6.86,6.42-8.68,3.93-.54-.73-1.24-1.56-.51-3.48l1.38-7.42.63-3.41.58-3.11,4.59-1.54s1.76,12.38,2.01,15.05Z"/>
          <path class="cls-13" d="m67.23,35.17s-.45,2.94-2.54,3.87c-.94.41-1.84.65-2.6.77l.63-3.41c1.75-.32,4.07-.81,4.5-1.22Z"/>
          <path class="cls-23" d="m66.84,27.57l.64,6.33c.05,2.1-1.98,3.38-3.75,3.61-1.67.22-3.11.31-4.87-.82-1.07-.69-1.9-2.04-1.42-4.25.63-2.87,2.02-5.34,2.85-6.62,1.87-2.91,5.83-2.35,6.55,1.75Z"/>
          <path class="cls-25" d="m62.82,30.02s-1.78.14-4.04-.42c0,0-.49,1.33.29,1.91.78.58,2.69.03,3.76-1.5Z"/>
          <g>
            <path class="cls-5" d="m57.85,29.12c-.2-.02-.34-.05-.38-.07-.27-.03-.49-.16-.64-.37-.15-.22-.19-.49-.11-.76l.51-1.82c.15-.53.71-.93,1.26-.87l1.45.14c.27.03.51.16.65.37.15.22.19.49.11.76l-.22.78c-.08.29-.18.53-.31.74-.67,1.08-1.74,1.14-2.32,1.08Zm.6-3.53c-.38-.04-.78.24-.88.61l-.51,1.82c-.05.17-.03.34.06.47.09.13.23.2.39.22h.03c.06.02,1.51.44,2.32-.85.11-.18.2-.39.27-.65l.22-.78c.05-.17.03-.34-.06-.47-.09-.13-.23-.2-.39-.22l-1.45-.14Z"/>
            <path class="cls-5" d="m63.83,29.73c-.86-.09-1.95-.47-2.04-1.57-.02-.23,0-.48.08-.77l.19-.79c.13-.54.68-.94,1.23-.88l1.92.19c.27.03.51.16.66.37.15.22.2.49.14.76l-.44,1.82c-.13.54-.67.93-1.22.88-.15,0-.33,0-.52-.02Zm-.57-3.66c-.37-.04-.76.24-.85.61l-.19.79c-.06.26-.08.47-.07.66.1,1.34,2.18,1.26,2.2,1.26h.03c.37.04.76-.24.85-.61l.44-1.82c.04-.17.01-.34-.08-.47-.09-.13-.24-.21-.41-.23l-1.92-.19Z"/>
            <path class="cls-5" d="m62.06,27.41s-.07-.02-.1-.05c-.7-.64-1.47-.17-1.51-.15-.08.05-.19.03-.24-.06-.05-.08-.03-.19.06-.24.35-.22,1.21-.47,1.93.19.07.07.08.18.01.25-.04.04-.1.06-.15.06Z"/>
          </g>
          <g>
            <path class="cls-13" d="m60.73,29.03c-.18-.03-.3-.15-.29-.33.02-.41-.62-.4-.64.01-.02.45.33.88.77.94.17.02.34-.05.39-.23.04-.15-.06-.36-.23-.39Z"/>
            <path class="cls-5" d="m64.09,27.25c-.11-.06-.3-.03-.35.1-.07.16-.1.31-.08.48.01.14.11.26.26.25.13,0,.27-.12.25-.26,0-.08.05-.5-.08-.57Z"/>
            <path class="cls-5" d="m59.66,26.9v.29c.01.33.53.32.52,0v-.29c-.01-.33-.53-.32-.52,0Z"/>
          </g>
          <path class="cls-28" d="m68.05,28.79c.09-.3-.55-1.35-1.21-1.1,0,0-.09.68-.21,1.33l1.01.73c.22-.44.37-.85.41-.96Z"/>
          <path class="cls-5" d="m69.26,29.38c-.2-.2-2.2-1.42-3.5-2.19l.16-.28c.34.2,3.28,1.95,3.57,2.25l-.23.23Z"/>
          <path class="cls-23" d="m67.21,30.02c.32-.24.59-.52.85-.82.49-.57,1.35-1.29,1.83-.15.7,1.66-1.68,4.43-3.27,3.44-1.19-.73-.21-1.88.59-2.48Z"/>
          <path class="cls-28" d="m66.63,29.03c-.07.35-.15.7-.24.93-.25.64-.66,1.05,0,1.21.4.1.98-.95,1.33-1.66l-1.09-.48Z"/>
        </g>
        <path class="cls-10" d="m51.79,131.22c-.14,0-.26-.11-.26-.26,0-.1-.32-9.77,0-13.34.32-3.55.83-11.11.84-11.18,0-.15.14-.26.28-.25.15,0,.26.14.25.28,0,.08-.52,7.64-.84,11.19-.32,3.54,0,13.18,0,13.27,0,.15-.11.27-.26.27,0,0,0,0,0,0Z"/>
        <path class="cls-25" d="m62.35,49.74s6.21-3.3,7.87-4.16l1.62,4.71-4.61,6.64-5.44-4.43-5.17,1.78,4.03-8.38,1.7,3.84Z"/>
        <path class="cls-8" d="m18.72,100.69s12.04-8.67,14.5-5.14c2.47,3.53,2.74,14.55-.54,19.7-4.7,7.41-11.78,11.36-17.6,5.06-5.82-6.3,3.63-19.62,3.63-19.62Z"/>
        <path class="cls-32" d="m29.28,92.44c-1.16,1.86.73,11.94.73,11.94,0,0,4.88.68,6.69-2.01.9-1.33.43-4.05.43-4.05,0,0,.56-.1.37-2.32-.14-1.55-2.03-1.84-3.16-1.87.86-.09,2.17-.42,2.85-1.61,1.07-1.86-6.75-1.94-7.91-.09Z"/>
        <path class="cls-10" d="m12.58,104.8s-.1-.01-.14-.03c-.17-.08-.24-.28-.16-.45,5.16-10.78,17.29-13.53,17.41-13.55.18-.04.36.08.4.26.04.18-.08.36-.26.4-.12.03-11.93,2.7-16.95,13.18-.06.12-.18.19-.3.19Z"/>
        <g>
          <path class="cls-17" d="m16.96,94.23s-9.89,5.16-10.07,8.84c-.18,3.68.66,21.18,1.92,22.87,1.26,1.68,63.08,1.95,67.07.75,3.99-1.21,6.86-3.86,7.34-4.82.48-.96.84-12.89.84-12.89,0,0,.47-10.5-.3-11.58-.78-1.08-17.1-3.37-26.19-2.64s-40.61-.53-40.61-.53Z"/>
          <g>
            <path class="cls-7" d="m76.7,76.9c5.9-9.57,11.73-10.98,11.73-10.98,0,0-6.05,16.67-7.65,19.58-1.6,2.91-8.32,9.11-8.32,9.11,0,0,.51-11.67,4.24-17.72Z"/>
            <path class="cls-7" d="m62.89,70.89l-.94-.15s-1.47.2-5.3,5.3c-3.83,5.1-3.65,7.15-3.65,7.15,0,0,8.68-8.51,10.29-8.63,1.61-.12.54-3.52-.4-3.67Z"/>
            <path class="cls-7" d="m69.22,73.38s-6.23,32.02-12.11,33.94c0,0-2.49-1.31-3.72-5.39-1.23-4.08,1.53-14.48,3.42-17.77,1.89-3.28,5.72-12.34,5.14-13.42,0,0,.56-.18,1.42-.24.13,0,.28-.02.42-.02.45,0,.95.03,1.47.14.16.03.31.07.47.12,1.2.34,2.47,1.1,3.49,2.64Z"/>
            <g>
              <path class="cls-26" d="m81.28,62.93s-.85-2.15-2.5-2.16c-1.65,0-4.41,2.3-5.56,3.71-1.15,1.41-8.69,12.98-13.64,23.07-2.79,5.7-5.65,13.98-4.39,15.86,1.26,1.88,8.81,5.35,10.6,4.8,1.79-.54,6.79-11.57,7.82-13.74,1.61-3.41,11.99-23.71,7.67-31.54Z"/>
              <path class="cls-27" d="m74.58,65.71s-.84-.21-1.34.72c-.51.93.42,1.11.9,1.05.48-.06.63-.28.66-.89s-.03-.86-.21-.88Z"/>
              <path class="cls-27" d="m76.41,63.66s-.64-.39-1.3.24.06,1.02.47,1.1c.41.08.59-.07.78-.56s.2-.72.06-.78Z"/>
              <path class="cls-27" d="m77.75,62.13s-.51-.31-1.03.19c-.53.5.04.81.37.87s.47-.05.62-.45c.15-.39.16-.57.04-.62Z"/>
              <path class="cls-27" d="m72.68,68.29s-1.11-.28-1.79.95c-.68,1.23.56,1.47,1.19,1.39.64-.08.83-.37.87-1.18.04-.81-.04-1.14-.28-1.17Z"/>
              <path class="cls-27" d="m71,71.56s-1.11-.28-1.79.95c-.68,1.23.56,1.47,1.19,1.39.64-.08.83-.37.87-1.18.04-.81-.04-1.14-.28-1.17Z"/>
              <path class="cls-27" d="m68.62,74.9s-1.11-.28-1.79.95c-.68,1.23.56,1.47,1.19,1.39.64-.08.83-.37.87-1.18.04-.81-.04-1.14-.28-1.17Z"/>
              <path class="cls-27" d="m66.35,78.23s-1.09-.28-1.76.95c-.66,1.23.55,1.47,1.17,1.39.63-.08.82-.37.86-1.18.04-.81-.04-1.14-.28-1.17Z"/>
              <path class="cls-27" d="m64.48,82.33s-1.09-.28-1.76.95c-.66,1.23.55,1.47,1.17,1.39.63-.08.82-.37.86-1.18.04-.81-.04-1.14-.28-1.17Z"/>
              <path class="cls-27" d="m62.61,86.43s-1.09-.28-1.76.95c-.66,1.23.55,1.47,1.17,1.39.63-.08.82-.37.86-1.18s-.04-1.14-.28-1.17Z"/>
              <path class="cls-27" d="m60.73,90.52s-1.09-.28-1.76.95.55,1.47,1.17,1.39c.63-.08.82-.37.86-1.18.04-.81-.04-1.14-.28-1.17Z"/>
              <path class="cls-27" d="m58.86,94.62s-1.09-.28-1.76.95c-.66,1.23.55,1.47,1.17,1.39.63-.08.82-.37.86-1.18.04-.81-.04-1.14-.28-1.17Z"/>
              <g>
                <path class="cls-27" d="m76.55,67.49s-.85-.13-1.27.84c-.42.97.52,1.06.99.95.47-.11.6-.34.57-.95-.03-.61-.11-.85-.29-.85Z"/>
                <path class="cls-27" d="m77.99,65.24s-.67-.32-1.26.38c-.59.7.17,1.01.58,1.04.42.03.58-.13.71-.64.13-.51.12-.73-.03-.78Z"/>
                <path class="cls-27" d="m78.88,63.44s-.53-.26-1.01.29c-.48.55.12.81.45.83.33.03.46-.1.57-.5.11-.41.1-.58-.01-.62Z"/>
                <path class="cls-27" d="m74.92,70.66s-1.13-.17-1.69,1.12c-.55,1.29.7,1.41,1.32,1.27.63-.14.8-.45.76-1.26-.04-.81-.15-1.13-.39-1.13Z"/>
                <path class="cls-27" d="m73.24,74.08s-1.13-.17-1.69,1.12c-.55,1.29.7,1.41,1.32,1.27.63-.14.8-.45.76-1.26-.04-.81-.15-1.13-.39-1.13Z"/>
                <path class="cls-27" d="m71.19,77.63s-1.13-.17-1.69,1.12c-.55,1.29.7,1.41,1.32,1.27s.8-.45.76-1.26c-.04-.81-.15-1.13-.39-1.13Z"/>
                <path class="cls-27" d="m69.25,81.16s-1.11-.17-1.66,1.12c-.54,1.29.69,1.41,1.3,1.27s.78-.45.74-1.26c-.04-.81-.15-1.13-.39-1.13Z"/>
                <path class="cls-27" d="m67.78,85.42s-1.11-.17-1.66,1.12c-.54,1.29.69,1.41,1.3,1.27s.78-.45.74-1.26c-.04-.81-.15-1.13-.39-1.13Z"/>
                <path class="cls-27" d="m66.31,89.68s-1.11-.17-1.66,1.12c-.54,1.29.69,1.41,1.3,1.27.61-.14.78-.45.74-1.26-.04-.81-.15-1.13-.39-1.13Z"/>
                <path class="cls-27" d="m64.84,93.94s-1.11-.17-1.66,1.12c-.54,1.29.69,1.41,1.3,1.27.61-.14.78-.45.74-1.26-.04-.81-.15-1.13-.39-1.13Z"/>
                <path class="cls-27" d="m63.37,98.19s-1.11-.17-1.66,1.12c-.54,1.29.69,1.41,1.3,1.27.61-.14.78-.45.74-1.26-.04-.81-.15-1.13-.39-1.13Z"/>
              </g>
              <g>
                <path class="cls-27" d="m78.93,68.06s.69.51.3,1.49c-.39.98-1.12.38-1.38-.02-.26-.41-.19-.66.26-1.07.45-.41.68-.52.81-.4Z"/>
                <path class="cls-27" d="m79.49,65.46s.7.25.63,1.16-.83.6-1.15.33c-.32-.27-.32-.5-.05-.96.27-.45.43-.6.57-.53Z"/>
                <path class="cls-27" d="m80.13,63.55s.56.19.51.92c-.05.73-.65.49-.91.27-.26-.21-.26-.4-.05-.76.21-.36.34-.49.45-.43Z"/>
                <path class="cls-27" d="m77.85,71.47s.92.68.41,1.99c-.52,1.31-1.49.51-1.83-.03-.34-.54-.25-.88.35-1.43s.9-.69,1.08-.53Z"/>
                <path class="cls-27" d="m76.63,75.07s.92.68.41,1.99c-.52,1.31-1.49.51-1.83-.03-.34-.54-.25-.88.35-1.43.6-.55.9-.69,1.08-.53Z"/>
                <path class="cls-27" d="m75.58,79.03s.92.68.41,1.99-1.49.51-1.83-.03c-.34-.54-.25-.88.35-1.43.6-.55.9-.69,1.08-.53Z"/>
                <path class="cls-27" d="m74.46,82.91s.91.66.39,1.96c-.53,1.3-1.48.52-1.82-.02-.34-.53-.24-.87.36-1.41.6-.55.9-.7,1.07-.53Z"/>
                <path class="cls-27" d="m72.5,86.96s.91.66.39,1.96c-.53,1.3-1.48.52-1.82-.02s-.24-.87.36-1.41c.6-.55.9-.7,1.07-.53Z"/>
                <path class="cls-27" d="m70.54,91.02s.91.66.39,1.96-1.48.52-1.82-.02c-.34-.53-.24-.87.36-1.41.6-.55.9-.7,1.07-.53Z"/>
                <path class="cls-27" d="m68.58,95.07s.91.66.39,1.96c-.53,1.3-1.48.52-1.82-.02s-.24-.87.36-1.41c.6-.55.9-.7,1.07-.53Z"/>
                <path class="cls-27" d="m66.62,99.13s.91.66.39,1.96c-.53,1.3-1.48.52-1.82-.02-.34-.53-.24-.87.36-1.41s.9-.7,1.07-.53Z"/>
              </g>
            </g>
            <path class="cls-7" d="m89.99,79.5c-.06.03-3.65,2.03-6.85,7.18-.3.48-.6,1-.89,1.54-.87,1.62-1.69,3.5-2.35,5.66-.69,2.26-1.81,4.62-3.12,6.76-1.45,2.37-3.14,4.47-4.74,5.84-.8.68-1.57,1.19-2.29,1.45-.43.16-.87.31-1.33.44-3.22.93-7.01,1.04-9.06-1.53,0,0,2.58-3.98,5.63-7.39,1.19-1.32,2.45-2.56,3.66-3.44.44-.32.86-.59,1.28-.8,1.36-.69,2.68-1.71,3.88-2.85.3-.29.6-.58.88-.87,2.39-2.47,4.2-5.21,4.78-6.25,3.56-6.29,10.41-5.75,10.51-5.74Z"/>
          </g>
          <g>
            <path class="cls-7" d="m41.45,83.32s-1.51.6-2.18.72c-.66.12-3.47-.45-3.79-1.99-.32-1.54.1-1.86.1-1.86,0,0-2.4-3.25-1.41-6.44s3.58-2.43,3.58-2.43c0,0,.26-7.72,8.75-8.22,8.49-.49,9.63,3.22,9.63,3.22,0,0,1.64-1.12,3.46-.34,1.82.78,2.25,3.49,2.25,3.49,0,0,3.53.89,3.12,5.09-.41,4.2-4.74,3.55-8.99,3.52-4.25-.03-14.52,5.24-14.52,5.24Z"/>
            <path class="cls-9" d="m46.64,90.07s.53.79,2.23.4c1.7-.39,1.51-.18,2.96-.25,1.45-.07,3.47-.67,3.47-.67,0,0,2.17-8.8,2.58-10.07.41-1.28,2.13-4.42,1.81-4.56-.32-.14-1.42.14-1.42.14l-.61,2.08s0-1.55-.2-2.08c-.19-.52-1.07-1.17-1.33-.75-.26.42-.12,2.77-.34,3.18-.22.41-.46-3.44-.69-3.42s-1.56.21-1.62.78c-.06.57.25,3.96.2,5.04-.05,1.07-.57,3.37-.65,3.1-.08-.27-.71-8.47-1.5-8.56-.8-.09-2,.2-2,.2l.18,3.02s-.67-3.42-1.28-3.36c-.61.06-1.81-.44-1.81.23,0,.67.67,3.02.67,3.02,0,0-1.02-2.37-1.62-2.2s-1.63.55-1.48.99c.15.43,3.6,6.95,3.79,7.78.19.82-4.78-2.4-5.05-4,0,0-1.15.28-1.14.95,0,.67,1.74,1.68,1.88,1.95s3.02,2.18,3.02,2.18c0,0-4.86-2.62-5.38-3.3-.52-.68-.9-.02-.87.25s.13,1.28.13,1.28c0,0,2.01,1.04,2.8,1.64.79.6,3.39,3.1,3.3,5.02Z"/>
            <path class="cls-9" d="m48.37,81.48s-.02-.08-.04-.13c.05.18.07.25.04.13Z"/>
            <path class="cls-9" d="m47.93,84.21h0c-.48.24-4.77-2.63-5.02-4.12,0,0-.35.09-.67.28.09.13.27.35.63.73.89.92,3.45,2.99,4.15,3.28s1.1,0,.9-.17Z"/>
          </g>
          <g>
            <path class="cls-22" d="m40.86,79.93s-3.68,1.01-5.06,4.08-1.55,10.77,3.43,13.33,14.86-.78,15.42-7.01c.56-6.24-2.55-14.28-13.79-10.4Z"/>
            <path class="cls-14" d="m51.43,84.11c-.23,2.18.5,2.9-1.3,4.67-1.8,1.77-2.42,4.3-5.32,3.73-2.9-.57-3.81.83-6.48-.17-1.76-.66-2.84-2.35-3.37-3.42.05,3.23,1.16,6.82,4.26,8.42,4.97,2.56,14.86-.78,15.42-7.01.35-3.91-.74-8.53-4.38-10.48.57,1.14,1.31,2.91,1.16,4.27Z"/>
            <path class="cls-9" d="m42.23,80.3s.97.15,1.51-.55c.54-.7.63-1.75.63-1.75,0,0,.03.56.54.43s1.11-1.18,1.11-1.18c0,0-1.23,2.33-.89,2.74.34.41,4.05.32,4.05.32,0,0-.67.39-.34.77s1.96.85,1.96.85c0,0-3.74-.29-4.11-.33-.37-.04.26.72.26.72,0,0-1.05-.52-1.72-.36-.67.16-.63,2.03-.63,2.03,0,0-.65-.49-1.14.09-.49.59-1.13,1.59-1.13,1.59,0,0,.61-2.75.27-3.44-.34-.69-1.35-1.07-2.28-.91-.92.16-.79.42-1.43.41-.64,0-1.31-.19-1.31-.19,0,0,2.03-.42,2.48-.64.45-.23,1-.32,1.31-.35.31-.03-.81-.95-.81-.95l1.68.67Z"/>
            <path class="cls-9" d="m43.91,81.38c-.09-.04-.15-.12-.19-.21-.25-.62-1.4-3.52-1.34-4.04.07-.58.73-2.28,1.12-1.93.38.35.62.52.32.87s-1.01.62-.88,1.24c.12.54,1.12,3,1.37,3.62.05.13.04.29-.05.4-.07.08-.18.13-.35.05Z"/>
          </g>
          <g>
            <g>
              <rect class="cls-11" x="66.93" y="95.94" width="7.41" height="29.5"/>
              <rect class="cls-11" x="1.39" y="95.94" width="7.41" height="29.5"/>
              <path class="cls-31" d="m65.9,106.2c0,.85-.7,1.54-1.55,1.54s-1.55-.69-1.55-1.55c0,0,0,0,0,0l-62.81-.39v5.6l.56,1.67-.56,1.27v6l54.68-.68,20.5.21v-13.6l-9.28-.06Z"/>
              <polygon class="cls-31" points="0 89.94 0 93.46 .98 94.88 0 96.54 0 104.48 54.68 103.8 54.62 102.96 62.71 103.7 75.18 103.54 75.18 89.94 0 89.94"/>
              <path class="cls-31" d="m55.83,121.29l-5.43.48-4.16-.48h-16.97c0,.99-.98,1.8-2.18,1.8s-2.18-.8-2.18-1.8H0v13.15l54.68-.62,8.03-.09,12.47-.14v-12.3h-19.35Z"/>
              <path class="cls-30" d="m1.39,94.93s31.82-.24,39.19,0c7.37.24,13.26.34,13.26.34,0,0-42.17,1.71-52.45-.34Z"/>
              <polygon class="cls-30" points="62.71 103.7 54.56 102.08 54.62 102.96 62.71 103.7"/>
              <polygon class="cls-30" points="75.18 93.12 71.98 93.44 75.18 94.05 75.18 93.12"/>
              <path class="cls-30" d="m40.52,98.29s16.18-.52,23.35-.39c7.18.13,11.3.39,11.3.39v1.24l-34.65-1.24Z"/>
              <polygon class="cls-30" points=".56 113.06 27.62 113.35 .08 111.61 .56 113.06"/>
              <path class="cls-30" d="m39.04,125.95s-3.36-.72-4.36.22,5.12,2.11,6.23,1.18c1.12-.94-1.87-1.39-1.87-1.39Z"/>
              <path class="cls-30" d="m30.47,97.81c-.22-.11-.46-.18-.71-.22-.82-.14-3.03-.45-2.14.29,1.01.84,4.29.64,2.85-.07Z"/>
            </g>
            <g>
              <polygon class="cls-16" points="84.71 122.41 83.76 122.64 83.76 93.71 84.71 93.48 84.71 122.41"/>
              <polygon class="cls-16" points="76.31 124.47 75.36 124.7 75.36 95.77 76.31 95.54 76.31 124.47"/>
              <path class="cls-15" d="m83.63,103.8c0,.83-.09,1.53-.2,1.56-.11.03-.2-.63-.2-1.47,0,0,0,0,0,0l-8.05,2.37v13.47l7.01-2.39,2.63-.44v-13.34l-1.19.23Z"/>
              <polygon class="cls-15" points="75.18 89.94 75.18 93.38 75.18 96.41 75.18 103.55 82.19 101.8 82.18 100.98 83.22 101.45 84.82 100.91 84.82 87.57 75.18 89.94"/>
              <path class="cls-15" d="m82.34,118.92l-.7.64-.53-.34-2.18.53c0,.97-.13,1.79-.28,1.83-.15.04-.28-.72-.28-1.69l-3.19,1.4v12.28l7.01-2.32,1.03-.34,1.6-.53v-12.06l-2.48.61Z"/>
              <polygon class="cls-21" points="83.22 101.45 82.17 100.12 82.18 100.98 83.22 101.45"/>
              <path class="cls-21" d="m80.18,124.01s-.43-.6-.56.35c-.13.95.66,1.91.8.96s-.24-1.31-.24-1.31Z"/>
              <path class="cls-21" d="m79.08,96.69c-.03-.1-.06-.16-.09-.2-.11-.11-.39-.34-.27.35.13.79.55.5.37-.16Z"/>
            </g>
          </g>
        </g>
        <path class="cls-24" d="m87.45,54.93s56.74,20.7,53.41,45.19c-2.51,18.4-40.2,22.95-54.16,13.65-3.43-2.28-2.89-9.43-2.82-11.12.26-6.45,28.08-10.95,28.08-10.95,0,0-20.43-10.61-22.2-17.48-2.69-10.45-2.31-19.28-2.31-19.28Z"/>
        <path class="cls-23" d="m84.25,101.82s-3-.65-4.79-.57c-1.79.08-3.32.75-5.04.47-2.49-.41-2.32.76-1.1,1.21,1.77.66,5.3.86,5.28,1.35-.02.5-7.04,3.78-6.99,5.55.05,1.76,4.94-1.2,5.97-1.28,1.03-.08-3.86,2.16-3.22,3.02.64.86,5.07,1.56,7.77.95,2.7-.61,6.37-5.07,6.05-6.93-.33-1.86-2.44-3.8-3.93-3.76Z"/>
        <path class="cls-17" d="m96.79,83c-.13,0-.26-.05-.36-.14l-7.64-6.78c-.23-.2-.25-.54-.05-.77.2-.23.54-.25.77-.05l7.64,6.78c.23.2.25.54.05.77-.11.12-.26.18-.41.18Z"/>
        <path class="cls-17" d="m130.61,96.9c-.12,0-.23-.04-.33-.11-7.27-5.58-18.29-4.38-18.4-4.37-.3.03-.57-.18-.6-.48-.03-.3.18-.57.48-.6.12-.01,2.92-.33,6.69.07,3.5.37,8.51,1.45,12.5,4.52.24.18.28.53.1.76-.11.14-.27.21-.43.21Z"/>
        <path class="cls-25" d="m58.32,221.93c-.29,0-.57,0-.86,0-.15,0-.26-.12-.26-.27,0-.15.12-.26.26-.26h0c.88,0,1.78,0,2.64-.01.15,0,.27.11.27.26,0,.15-.11.27-.26.27-.59,0-1.19.01-1.79.01Zm-3.5-.05s0,0,0,0c-.86-.02-1.76-.05-2.65-.09-.15,0-.26-.13-.25-.28,0-.15.13-.26.28-.25.89.04,1.78.07,2.64.09.15,0,.26.13.26.27,0,.14-.12.26-.26.26Zm7.93-.04c-.14,0-.26-.11-.26-.25,0-.15.11-.27.25-.27.9-.04,1.79-.08,2.63-.14.14-.01.27.1.28.25s-.1.27-.25.28c-.85.06-1.74.11-2.65.14,0,0,0,0-.01,0Zm-13.22-.19s-.01,0-.02,0c-.87-.05-1.76-.11-2.64-.18-.15-.01-.26-.14-.24-.28.01-.15.14-.26.28-.24.88.06,1.77.12,2.64.17.15,0,.26.13.25.28,0,.14-.12.25-.26.25Zm18.5-.19c-.13,0-.25-.1-.26-.24-.01-.15.09-.28.24-.29h0c.83-.09,1.71-.19,2.62-.31.14-.02.28.08.3.23.02.14-.08.28-.23.3-.91.11-1.79.22-2.62.3h-.01s-.02,0-.03,0Zm-23.78-.2s-.02,0-.02,0c-.88-.08-1.77-.16-2.64-.25-.15-.01-.25-.14-.24-.29.01-.15.14-.25.29-.24.87.09,1.75.17,2.63.25.15.01.25.14.24.29-.01.14-.13.24-.26.24Zm29.03-.45c-.13,0-.24-.1-.26-.23-.02-.14.08-.28.22-.3.84-.12,1.72-.25,2.62-.39.14-.02.28.08.3.22.02.14-.08.28-.22.3-.9.14-1.78.27-2.62.39-.01,0-.02,0-.04,0Zm-34.3-.08s-.02,0-.03,0c-1.65-.19-2.63-.33-2.64-.33-.14-.02-.24-.15-.22-.3.02-.14.15-.24.3-.22,0,0,.98.14,2.62.33.15.02.25.15.23.29-.02.13-.13.23-.26.23Zm39.53-.72c-.13,0-.24-.09-.26-.22-.02-.14.07-.28.22-.3.85-.14,1.73-.29,2.61-.44.14-.02.28.07.31.22.02.14-.07.28-.22.31-.88.15-1.76.3-2.61.44-.01,0-.03,0-.04,0Zm5.22-.91c-.13,0-.24-.09-.26-.22-.03-.14.07-.28.21-.31.85-.15,1.73-.32,2.6-.48.14-.03.28.07.31.21.03.14-.07.28-.21.31-.88.17-1.75.33-2.61.48-.02,0-.03,0-.05,0Zm5.2-.98c-.12,0-.23-.09-.26-.21-.03-.14.07-.28.21-.31.9-.18,1.76-.35,2.6-.52.14-.03.28.06.31.21.03.14-.06.28-.21.31-.83.17-1.7.34-2.6.52-.02,0-.03,0-.05,0Zm5.19-1.05c-.12,0-.23-.09-.26-.21-.03-.14.06-.28.2-.31.94-.2,1.8-.38,2.59-.55.14-.03.28.06.31.2.03.14-.06.28-.2.31-.79.17-1.66.35-2.59.55-.02,0-.04,0-.05,0Zm7.66-.51l-.57-1.03c-.32.07-.96.22-1.85.42-.14.03-.28-.06-.32-.2-.03-.14.06-.28.2-.32.86-.19,1.48-.33,1.81-.41l-.04-.33c-.02-.14.08-.28.23-.3.15-.02.28.08.3.23l.24,1.93Zm-.84-4.28c-.13,0-.25-.1-.26-.23l-.33-2.64c-.02-.14.08-.28.23-.3.14-.02.28.08.3.23l.33,2.64c.02.14-.08.28-.23.3-.01,0-.02,0-.03,0Zm-.67-5.27c-.13,0-.25-.1-.26-.23l-.33-2.63c-.02-.14.08-.28.23-.3.15-.02.28.08.3.23l.33,2.63c.02.14-.08.28-.23.3-.01,0-.02,0-.03,0Zm-.67-5.26c-.13,0-.25-.1-.26-.23l-.33-2.63c-.02-.14.08-.28.23-.3.15-.02.28.08.3.23l.33,2.63c.02.14-.08.28-.23.3-.01,0-.02,0-.03,0Zm-.67-5.26c-.13,0-.24-.1-.26-.23l-.34-2.63c-.02-.14.08-.28.23-.3.15-.02.28.08.3.23l.34,2.63c.02.14-.08.28-.23.3-.01,0-.02,0-.03,0Zm-.67-5.26c-.13,0-.24-.1-.26-.23l-.34-2.63c-.02-.14.08-.28.23-.3.14-.02.28.08.3.23l.34,2.63c.02.14-.08.28-.23.3-.01,0-.02,0-.03,0Zm-.68-5.26c-.13,0-.24-.1-.26-.23l-.34-2.63c-.02-.14.08-.28.23-.3.15-.02.28.08.3.23l.34,2.63c.02.14-.08.28-.23.3-.01,0-.02,0-.03,0Zm-.68-5.26c-.13,0-.24-.1-.26-.23l-.34-2.63c-.02-.14.08-.28.23-.3.14-.02.28.08.3.23l.34,2.63c.02.14-.08.28-.23.3-.01,0-.02,0-.03,0Zm-.68-5.26c-.13,0-.24-.1-.26-.23l-.34-2.63c-.02-.14.08-.28.23-.3.14-.02.28.08.3.23l.34,2.63c.02.14-.08.28-.23.3-.01,0-.02,0-.03,0Zm-.69-5.26c-.13,0-.24-.1-.26-.23-.12-.89-.23-1.77-.35-2.63-.02-.14.08-.28.23-.3.14-.02.28.08.3.23.11.86.23,1.74.35,2.63.02.14-.08.28-.23.3-.01,0-.02,0-.03,0Zm-.69-5.26c-.13,0-.24-.1-.26-.23-.12-.9-.24-1.78-.35-2.63-.02-.14.08-.28.23-.3.15-.02.28.08.3.23.11.85.23,1.73.35,2.63.02.14-.08.28-.23.3-.01,0-.02,0-.04,0Zm-.71-5.26c-.13,0-.24-.1-.26-.23-.13-.93-.25-1.8-.36-2.63-.02-.14.08-.28.23-.3.14-.02.28.08.3.23.11.82.23,1.7.36,2.63.02.14-.08.28-.23.3-.01,0-.02,0-.04,0Zm-.73-5.26c-.13,0-.24-.1-.26-.23-.15-1.04-.28-1.92-.38-2.63-.02-.14.08-.28.22-.3.14-.02.28.08.3.22.11.7.24,1.59.38,2.63.02.14-.08.28-.22.3-.01,0-.03,0-.04,0Zm-.78-5.25c-.13,0-.24-.09-.26-.23-.12-.83-.25-1.71-.38-2.62-.02-.14.08-.28.22-.3.14-.02.28.08.3.22.13.91.26,1.79.38,2.62.02.14-.08.28-.22.3-.01,0-.03,0-.04,0Zm-.76-5.24c-.13,0-.24-.1-.26-.23-.12-.86-.24-1.74-.36-2.62-.02-.14.08-.28.23-.3.14-.02.28.08.3.23.12.89.24,1.76.36,2.62.02.14-.08.28-.23.3-.01,0-.02,0-.04,0Zm-.72-5.25c-.13,0-.24-.1-.26-.23-.12-.88-.24-1.75-.35-2.63-.02-.14.08-.28.23-.3.15-.02.28.08.3.23.12.87.23,1.75.35,2.62.02.14-.08.28-.23.3-.01,0-.02,0-.04,0Zm-.7-5.25c-.13,0-.24-.1-.26-.23-.12-.89-.23-1.77-.35-2.63-.02-.14.08-.28.23-.3.15-.02.28.08.3.23.11.86.23,1.73.35,2.63.02.14-.08.28-.23.3-.01,0-.02,0-.04,0Zm-.69-5.25c-.13,0-.24-.1-.26-.23-.12-.92-.23-1.8-.34-2.63-.02-.14.08-.28.23-.3.15-.02.28.08.3.23.11.82.22,1.7.34,2.63.02.14-.08.28-.23.3-.01,0-.02,0-.03,0Zm-.68-5.26c-.13,0-.24-.1-.26-.23-.14-1.08-.25-1.98-.34-2.63-.02-.14.08-.28.23-.3.15-.02.28.08.3.23.08.65.2,1.55.34,2.63.02.14-.08.28-.23.3-.01,0-.02,0-.03,0Z"/>
      </g>
    </g>
    <g>
      <circle class="cls-6" cx="111.47" cy="116.12" r="20"/>
      <path class="cls-3" d="m113.38,124.4h-8.6m0,0c-1,0-1.81-.81-1.81-1.81v-12.67c0-1,.81-1.81,1.81-1.81h12.67c1,0,1.81.81,1.81,1.81v9.05l-4.52-4.52-9.95,9.95Zm4.52-11.31c0,.75-.61,1.36-1.36,1.36s-1.36-.61-1.36-1.36.61-1.36,1.36-1.36,1.36.61,1.36,1.36Z"/>
      <path class="cls-3" d="m119.26,121.69v5.43m-2.71-2.71h5.43"/>
    </g>
  </g>
</svg>